<svg xmlns="http://www.w3.org/2000/svg" viewBox="0 0 128 128" role="img" aria-label="Vorken Anti-Cheat">
  <defs>
    <linearGradient id="g" x1="18" y1="14" x2="112" y2="118" gradientUnits="userSpaceOnUse">
      <stop stop-color="#48f6d2"/>
      <stop offset="1" stop-color="#18bfae"/>
    </linearGradient>
    <radialGradient id="glow" cx="50%" cy="44%" r="60%">
      <stop stop-color="#2bf0c9" stop-opacity=".22"/>
      <stop offset="1" stop-color="#2bf0c9" stop-opacity="0"/>
    </radialGradient>
  </defs>
  <rect width="128" height="128" rx="28" fill="#06151d"/>
  <circle cx="64" cy="61" r="50" fill="url(#glow)"/>
  <path d="M64 10 108 27v33c0 29-17 49-44 59C37 109 20 89 20 60V27L64 10Z" fill="none" stroke="url(#g)" stroke-width="5"/>
  <path d="M38 38 58 88h12l20-50H77L64 74 51 38H38Z" fill="url(#g)"/>
  <path d="M91 58a31 31 0 0 1-9 22" fill="none" stroke="#2bf0c9" stroke-width="3" stroke-linecap="round" opacity=".72"/>
  <circle cx="64" cy="61" r="4" fill="#8affea"/>
  <circle cx="91" cy="58" r="3" fill="#2bf0c9"/>
</svg>